<mxfile host="app.diagrams.net" modified="2023-12-08T15:10:04.886Z" agent="Mozilla/5.0 (Windows NT 10.0; Win64; x64) AppleWebKit/537.36 (KHTML, like Gecko) Chrome/119.0.0.0 Safari/537.36" etag="2_ZjWnAYXsOBAOHkX4Lu" version="22.1.7" type="github">
  <diagram name="Página-1" id="1KDc_qa_NemvcjFZGHpF">
    <mxGraphModel dx="1050" dy="522" grid="1" gridSize="10" guides="1" tooltips="1" connect="1" arrows="1" fold="1" page="1" pageScale="1" pageWidth="1169" pageHeight="827" math="0" shadow="0">
      <root>
        <mxCell id="0" />
        <mxCell id="1" parent="0" />
        <mxCell id="fMIRhGzmw3L--5v88i2u-1" value="Administrador" style="shape=umlActor;verticalLabelPosition=bottom;verticalAlign=top;html=1;outlineConnect=0;fillColor=none;" vertex="1" parent="1">
          <mxGeometry x="190" y="165" width="30" height="60" as="geometry" />
        </mxCell>
        <mxCell id="fMIRhGzmw3L--5v88i2u-2" value="Interfaz de gestión de empleados" style="rounded=0;whiteSpace=wrap;html=1;fillColor=none;verticalAlign=top;" vertex="1" parent="1">
          <mxGeometry x="280" y="23.75" width="220" height="342.5" as="geometry" />
        </mxCell>
        <mxCell id="fMIRhGzmw3L--5v88i2u-3" value="Registrar&lt;br&gt;empleado" style="ellipse;whiteSpace=wrap;html=1;fillColor=none;" vertex="1" parent="1">
          <mxGeometry x="330" y="56.25" width="120" height="50" as="geometry" />
        </mxCell>
        <mxCell id="fMIRhGzmw3L--5v88i2u-4" value="Editar&lt;br&gt;empleado" style="ellipse;whiteSpace=wrap;html=1;fillColor=none;" vertex="1" parent="1">
          <mxGeometry x="330" y="116.25" width="120" height="50" as="geometry" />
        </mxCell>
        <mxCell id="fMIRhGzmw3L--5v88i2u-5" value="Eliminar &lt;br&gt;empleado" style="ellipse;whiteSpace=wrap;html=1;fillColor=none;" vertex="1" parent="1">
          <mxGeometry x="330" y="176.25" width="120" height="50" as="geometry" />
        </mxCell>
        <mxCell id="fMIRhGzmw3L--5v88i2u-6" value="&lt;p style=&quot;line-height: 100%;&quot;&gt;Visualizar datos de empleado&lt;/p&gt;" style="ellipse;whiteSpace=wrap;html=1;fillColor=none;spacingTop=2;" vertex="1" parent="1">
          <mxGeometry x="330" y="236.25" width="120" height="50" as="geometry" />
        </mxCell>
        <mxCell id="fMIRhGzmw3L--5v88i2u-7" value="Regresar" style="ellipse;whiteSpace=wrap;html=1;fillColor=none;" vertex="1" parent="1">
          <mxGeometry x="330" y="296.25" width="120" height="50" as="geometry" />
        </mxCell>
        <mxCell id="fMIRhGzmw3L--5v88i2u-16" value="" style="endArrow=none;html=1;rounded=0;entryX=0;entryY=0.5;entryDx=0;entryDy=0;exitX=0.5;exitY=0.5;exitDx=0;exitDy=0;exitPerimeter=0;" edge="1" parent="1" source="fMIRhGzmw3L--5v88i2u-1" target="fMIRhGzmw3L--5v88i2u-3">
          <mxGeometry width="50" height="50" relative="1" as="geometry">
            <mxPoint x="160" y="140" as="sourcePoint" />
            <mxPoint x="210" y="90" as="targetPoint" />
          </mxGeometry>
        </mxCell>
        <mxCell id="fMIRhGzmw3L--5v88i2u-17" value="" style="endArrow=none;html=1;rounded=0;entryX=0;entryY=0.5;entryDx=0;entryDy=0;exitX=0.5;exitY=0.5;exitDx=0;exitDy=0;exitPerimeter=0;" edge="1" parent="1" source="fMIRhGzmw3L--5v88i2u-1" target="fMIRhGzmw3L--5v88i2u-4">
          <mxGeometry width="50" height="50" relative="1" as="geometry">
            <mxPoint x="215" y="205" as="sourcePoint" />
            <mxPoint x="340" y="91" as="targetPoint" />
          </mxGeometry>
        </mxCell>
        <mxCell id="fMIRhGzmw3L--5v88i2u-18" value="" style="endArrow=none;html=1;rounded=0;entryX=0;entryY=0.5;entryDx=0;entryDy=0;exitX=0.5;exitY=0.5;exitDx=0;exitDy=0;exitPerimeter=0;" edge="1" parent="1" source="fMIRhGzmw3L--5v88i2u-1" target="fMIRhGzmw3L--5v88i2u-5">
          <mxGeometry width="50" height="50" relative="1" as="geometry">
            <mxPoint x="215" y="205" as="sourcePoint" />
            <mxPoint x="340" y="151" as="targetPoint" />
          </mxGeometry>
        </mxCell>
        <mxCell id="fMIRhGzmw3L--5v88i2u-19" value="" style="endArrow=none;html=1;rounded=0;entryX=0;entryY=0.5;entryDx=0;entryDy=0;exitX=0.5;exitY=0.5;exitDx=0;exitDy=0;exitPerimeter=0;" edge="1" parent="1" source="fMIRhGzmw3L--5v88i2u-1" target="fMIRhGzmw3L--5v88i2u-6">
          <mxGeometry width="50" height="50" relative="1" as="geometry">
            <mxPoint x="215" y="205" as="sourcePoint" />
            <mxPoint x="340" y="211" as="targetPoint" />
          </mxGeometry>
        </mxCell>
        <mxCell id="fMIRhGzmw3L--5v88i2u-20" value="" style="endArrow=none;html=1;rounded=0;entryX=0;entryY=0.5;entryDx=0;entryDy=0;exitX=0.5;exitY=0.5;exitDx=0;exitDy=0;exitPerimeter=0;" edge="1" parent="1" source="fMIRhGzmw3L--5v88i2u-1" target="fMIRhGzmw3L--5v88i2u-7">
          <mxGeometry width="50" height="50" relative="1" as="geometry">
            <mxPoint x="215" y="205" as="sourcePoint" />
            <mxPoint x="340" y="271" as="targetPoint" />
          </mxGeometry>
        </mxCell>
      </root>
    </mxGraphModel>
  </diagram>
</mxfile>
